<?xml version="1.0" encoding="UTF-8" standalone="no"?>
<!-- Created with Inkscape (http://www.inkscape.org/) -->

<svg
   width="100.1081mm"
   height="100.1081mm"
   viewBox="0 0 100.1081 100.1081"
   version="1.1"
   id="svg5"
   inkscape:version="1.2.1 (9c6d41e410, 2022-07-14)"
   sodipodi:docname="app-logo.svg"
   xmlns:inkscape="http://www.inkscape.org/namespaces/inkscape"
   xmlns:sodipodi="http://sodipodi.sourceforge.net/DTD/sodipodi-0.dtd"
   xmlns="http://www.w3.org/2000/svg"
   xmlns:svg="http://www.w3.org/2000/svg">
  <sodipodi:namedview
     id="namedview7"
     pagecolor="#505050"
     bordercolor="#ffffff"
     borderopacity="1"
     inkscape:showpageshadow="0"
     inkscape:pageopacity="0"
     inkscape:pagecheckerboard="1"
     inkscape:deskcolor="#505050"
     inkscape:document-units="mm"
     showgrid="false"
     inkscape:zoom="1.0129245"
     inkscape:cx="612.58267"
     inkscape:cy="137.72004"
     inkscape:window-width="1920"
     inkscape:window-height="991"
     inkscape:window-x="-9"
     inkscape:window-y="-9"
     inkscape:window-maximized="1"
     inkscape:current-layer="layer1" />
  <defs
     id="defs2" />
  <g
     inkscape:label="Layer 1"
     inkscape:groupmode="layer"
     id="layer1"
     transform="translate(114.4647,-77.390108)">
    <path
       id="path234"
       style="fill:#ffffff;stroke-width:1.5;stroke-linecap:round;stroke-linejoin:round"
       d="m -72.602138,77.390108 c -0.33955,0 -0.487876,0.704857 -0.612883,1.537891 -0.594054,3.95871 -1.100745,7.900724 -1.530656,11.828218 a 39.383541,38.048508 0 0 0 -8.655285,3.378606 c -3.002646,-2.447404 -6.033575,-4.853468 -9.090402,-7.221265 -0.668015,-0.517447 -1.280738,-0.894318 -1.520837,-0.654224 l -3.351733,3.351734 -4.880326,4.880839 -3.35173,3.351733 c -0.2401,0.240097 0.13626,0.852817 0.65371,1.520838 2.22055,2.866732 4.47618,5.709452 6.766509,8.528682 a 39.383541,38.048508 0 0 0 -4.199739,9.52913 c -3.52452,0.36692 -7.04176,0.77275 -10.5513,1.21853 -0.83825,0.10647 -1.53789,0.27333 -1.53789,0.61288 v 4.74028 6.90191 4.74028 c 0,0.33955 0.69964,0.50641 1.53789,0.61288 3.50974,0.4458 7.0271,0.85158 10.55181,1.21853 a 39.383541,38.048508 0 0 0 4.199229,9.5281 c -2.290459,2.81936 -4.545849,5.66234 -6.766509,8.52919 -0.51745,0.66802 -0.89432,1.28074 -0.65423,1.52084 l 3.35174,3.35173 4.880319,4.88033 3.35225,3.35225 c 0.240097,0.2401 0.85282,-0.13678 1.520837,-0.65423 3.057153,-2.36803 6.087958,-4.77464 9.090918,-7.22229 a 39.383541,38.048508 0 0 0 8.838221,3.42614 c 0.398823,3.93646 0.84959,7.863 1.347204,11.78068 0.106473,0.83825 0.273333,1.53789 0.612883,1.53789 h 4.740279 6.901904 4.740279 c 0.339549,0 0.50641,-0.69964 0.612883,-1.53789 0.496525,-3.90911 0.946438,-7.82704 1.344621,-11.75484 a 39.383541,38.048508 0 0 0 8.687841,-3.35018 c 3.01708,2.41766 6.09494,4.79396 9.2444,7.12153 0.67744,0.50065 1.28073,0.8938 1.52083,0.6537 l 3.35174,-3.35173 4.88032,-4.88032 3.35225,-3.35174 c 0.2401,-0.24007 -0.15357,-0.84339 -0.65422,-1.52083 -2.17979,-2.94951 -4.40303,-5.8348 -6.66213,-8.66769 a 39.383541,38.048508 0 0 0 4.0721,-9.22166 c 3.51283,-0.39891 7.03663,-0.8566 10.57455,-1.38751 0.83303,-0.12501 1.53789,-0.27333 1.53789,-0.61288 v -4.74028 -6.90191 -4.74028 c 0,-0.33955 -0.70486,-0.48787 -1.53789,-0.61288 -3.54624,-0.53216 -7.07833,-0.99054 -10.59935,-1.3901 a 39.383541,38.048508 0 0 0 -4.05608,-9.20925 c 2.26192,-2.83622 4.48795,-5.72494 6.67039,-8.678026 0.50065,-0.677436 0.89432,-1.280743 0.65422,-1.520837 l -3.35173,-3.351734 -4.88032,-4.880322 -3.35225,-3.35225 c -0.2401,-0.240098 -0.8434,0.153573 -1.52084,0.654223 -3.15536,2.331922 -6.23897,4.712634 -9.26145,7.134965 a 39.383541,38.048508 0 0 0 -8.484236,-3.291272 c -0.429911,-3.927494 -0.936601,-7.869508 -1.530656,-11.828218 -0.125007,-0.833034 -0.273334,-1.537891 -0.612883,-1.537891 h -4.740279 -6.901904 z m -8.779309,34.358112 h 33.941596 c 2.45321,0 4.42867,1.97495 4.42867,4.42815 v 17.85679 c 0,2.45321 -1.97546,4.42816 -4.42867,4.42816 h -29.152741 l -2.513542,5.6012 c -0.845412,2.13035 -1.820058,-3.74929 -2.730066,-5.62394 -2.238081,-0.22622 -3.973918,-2.10574 -3.973918,-4.40542 v -17.85679 c 0,-2.4532 1.975468,-4.42815 4.428671,-4.42815 z" />
  </g>
</svg>
