<svg width="10" height="8" viewBox="0 0 10 8" fill="none" xmlns="http://www.w3.org/2000/svg">
<path d="M2.35249 1C1.61181 1 1.01548 1.347 1.01548 1.77803V4.64715V4.74322C1.01548 4.79212 1.01498 4.96495 1.00732 5.11229C0.987382 6.29846 1.0161 6.32127 1.00173 7C2.52814 5.24785 2.39183 5.58909 3.41689 5.52125H7.53023C8.27091 5.52125 8.86724 5.17425 8.86724 4.74322V1.77803C8.86724 1.347 8.27091 1 7.53023 1H2.35249Z" stroke="#584F4D" stroke-width="0.5" stroke-linecap="round" stroke-linejoin="round"/>
<path d="M2.84003 2.3867H6.99058H2.84003Z" fill="#008080"/>
<path d="M2.84003 2.3867H6.99058" stroke="#584F4D" stroke-width="0.5" stroke-linecap="round" stroke-linejoin="round"/>
<path d="M2.84003 3.29726H6.45254H2.84003Z" fill="#008080"/>
<path d="M2.84003 3.29726H6.45254" stroke="#584F4D" stroke-width="0.5" stroke-linecap="round" stroke-linejoin="round"/>
<path d="M2.84003 4.14201H5.91998H2.84003Z" fill="#008080"/>
<path d="M2.84003 4.14201H5.91997" stroke="#584F4D" stroke-width="0.5" stroke-linecap="round" stroke-linejoin="round"/>
<path d="M6.3389 4.14201H6.73636H6.3389Z" fill="#008080"/>
<path d="M6.3389 4.14201H6.73636" stroke="#584F4D" stroke-width="0.5" stroke-linecap="round" stroke-linejoin="round"/>
</svg>
