<svg width="19" height="24" viewBox="0 0 19 24" fill="none" xmlns="http://www.w3.org/2000/svg">
<path fill-rule="evenodd" clip-rule="evenodd" d="M9.32525 4.11454C12.7246 4.11454 15.4804 6.87029 15.4804 10.2697L15.4804 13.9928C13.8085 13.2278 11.5464 12.7582 9.05634 12.7582C6.82403 12.7582 4.77501 13.1356 3.17012 13.7649L3.17012 10.2697C3.17012 6.87028 5.92587 4.11454 9.32525 4.11454Z" fill="#923619"/>
<path fill-rule="evenodd" clip-rule="evenodd" d="M9.14507 0.678031C10.1675 0.678031 10.9963 1.50687 10.9963 2.5293L10.9963 3.90452C10.9963 3.94626 10.995 3.98768 10.9922 4.02874C10.4953 3.81314 9.83703 3.68188 9.11503 3.68188C8.42106 3.68188 7.78598 3.80315 7.29644 4.004C7.29469 3.97106 7.29381 3.93789 7.29381 3.90452L7.29381 2.5293C7.29381 1.50687 8.12265 0.678031 9.14507 0.678031Z" fill="#923619"/>
<path fill-rule="evenodd" clip-rule="evenodd" d="M7.34738 21.0422V22.1487C7.34738 23.1711 8.17622 24 9.19864 24C10.2211 24 11.0499 23.1711 11.0499 22.1487V21.0889C10.5248 21.139 9.97676 21.1655 9.41329 21.1655C8.69436 21.1655 8.00063 21.1223 7.34738 21.0422Z" fill="#923619"/>
<path fill-rule="evenodd" clip-rule="evenodd" d="M11.3653 21.6035C15.5317 21.1998 18.6459 19.5856 18.6459 17.6559C18.6459 15.422 14.4729 13.6111 9.32524 13.6111C4.1776 13.611 0.00461461 15.422 0.00460815 17.6559C0.00461056 19.5524 3.01252 21.1441 7.07108 21.5816C7.04265 21.4407 7.02773 21.2949 7.02773 21.1456V20.8319C4.27575 20.4736 2.30298 19.5029 2.30298 18.3615C2.30298 16.9156 5.46886 15.7435 9.37416 15.7435C13.2795 15.7435 16.4453 16.9156 16.4453 18.3615C16.4453 19.5449 14.3244 20.545 11.4131 20.869V21.1456C11.4131 21.3026 11.3966 21.4558 11.3653 21.6035Z" fill="#923619"/>
</svg>
