<svg width="11" height="11" viewBox="0 0 11 11" fill="none" xmlns="http://www.w3.org/2000/svg">
<rect x="3.02037" y="4.16111" width="1.21111" height="1.78148" rx="0.605556" fill="#D9D9D9" stroke="#584F4D" stroke-width="0.5"/>
<circle cx="3.62592" cy="3.62592" r="1.17593" fill="#D9D9D9" stroke="#584F4D" stroke-width="0.5"/>
<path d="M3.34074 4.48148V4.01429M3.34074 4.01429V3.5471C3.34074 3.39137 3.25128 3.17335 2.89345 3.5471C2.53561 3.92085 3.04254 4.01429 3.34074 4.01429Z" stroke="#584F4D" stroke-width="0.25" stroke-linecap="round"/>
<path d="M3.91112 4.48148V4.01429M3.91112 4.01429V3.5471C3.91112 3.39137 4.00058 3.17335 4.35842 3.5471C4.71625 3.92085 4.20932 4.01429 3.91112 4.01429Z" stroke="#584F4D" stroke-width="0.25" stroke-linecap="round"/>
<path d="M4.21685 4.98299H4.41124C4.58063 4.98299 4.71699 5.08061 4.71699 5.20188V6.86999C4.71699 6.99126 4.58063 7.08889 4.41124 7.08889H4.21685C4.04746 7.08889 3.9111 6.99126 3.9111 6.86999V5.20188C3.9111 5.08061 4.04746 4.98299 4.21685 4.98299ZM6.90547 6.60393H6.60065H6.90547ZM6.91615 6.02156L6.63121 6.02609L6.91615 6.02156ZM5.48903 3.66667C5.34844 3.66666 5.32352 3.79393 5.32352 3.90007C5.4533 4.73205 5.22783 4.72195 5.08049 5.01025C4.9583 5.23746 4.70556 5.14277 4.71146 5.16007C4.71586 5.72781 4.71699 6.26757 4.71699 6.82564C4.71699 6.9084 5.11641 6.99465 5.26559 7.0301C5.73111 7.11808 6.17967 7.09032 6.73954 7.05045C6.93526 7.00567 7.04339 6.98615 7.04055 6.81959C7.05115 6.54739 6.84602 6.63892 6.66428 6.60393H6.72268C6.89206 6.60393 7.12741 6.62493 7.11466 6.28135C7.11455 5.99009 6.73471 6.02609 6.84669 6.02609C7.01607 6.02609 7.10919 5.95471 7.10919 5.83345V5.68468C7.10919 5.56342 6.91664 5.49743 6.84224 5.49594L6.58391 5.49078C6.64935 5.48921 6.61984 5.48975 6.68529 5.48975C6.82766 5.48975 7.06246 5.54676 7.06246 5.315C7.06246 5.315 7.05949 5.14323 7.01298 5.10776C6.95479 5.06339 6.87663 5.0606 6.78797 5.04936C6.63332 5.02974 6.4728 5.03569 6.31147 5.04759C6.31147 5.04759 6.24654 5.05239 6.21621 5.05343C6.01374 5.06041 6.04423 5.12929 5.91745 4.90635C5.74267 4.41389 5.89947 3.73434 5.53648 3.67092C5.51936 3.66803 5.50357 3.66666 5.48903 3.66666V3.66667Z" fill="#D9D9D9"/>
<path d="M6.90547 6.60393H6.60065M6.91615 6.02156L6.63121 6.02609M4.21685 4.98299H4.41124C4.58063 4.98299 4.71699 5.08061 4.71699 5.20188V6.86999C4.71699 6.99126 4.58063 7.08889 4.41124 7.08889H4.21685C4.04746 7.08889 3.9111 6.99126 3.9111 6.86999V5.20188C3.9111 5.08061 4.04746 4.98299 4.21685 4.98299ZM5.48903 3.66667C5.34844 3.66666 5.32352 3.79393 5.32352 3.90007C5.4533 4.73205 5.22783 4.72195 5.08049 5.01025C4.9583 5.23746 4.70556 5.14277 4.71146 5.16007C4.71586 5.72781 4.71699 6.26757 4.71699 6.82564C4.71699 6.9084 5.11641 6.99465 5.26559 7.0301C5.73111 7.11808 6.17967 7.09032 6.73954 7.05045C6.93526 7.00567 7.04339 6.98615 7.04055 6.81959C7.05115 6.54739 6.84602 6.63892 6.66428 6.60393H6.72268C6.89206 6.60393 7.12741 6.62493 7.11466 6.28135C7.11455 5.99009 6.73471 6.02609 6.84669 6.02609C7.01607 6.02609 7.10919 5.95471 7.10919 5.83345V5.68468C7.10919 5.56342 6.91664 5.49743 6.84224 5.49594L6.58391 5.49078C6.64935 5.48921 6.61984 5.48975 6.68529 5.48975C6.82766 5.48975 7.06246 5.54676 7.06246 5.315C7.06246 5.315 7.05949 5.14323 7.01298 5.10776C6.95479 5.06339 6.87663 5.0606 6.78797 5.04936C6.63332 5.02974 6.4728 5.03569 6.31147 5.04759C6.31147 5.04759 6.24654 5.05239 6.21621 5.05343C6.01374 5.06041 6.04423 5.12929 5.91745 4.90635C5.74267 4.41389 5.89947 3.73434 5.53648 3.67092C5.51936 3.66803 5.50357 3.66666 5.48903 3.66666V3.66667Z" stroke="#584F4D" stroke-width="0.5" stroke-linecap="round" stroke-linejoin="round"/>
<path d="M6.07044 8.13553H6.26477C6.4341 8.13553 6.57041 8.0379 6.57041 7.91664V6.24853C6.57041 6.12726 6.4341 6.02963 6.26477 6.02963H6.07044C5.90111 6.02963 5.7648 6.12726 5.7648 6.24853V7.91664C5.7648 8.0379 5.90111 8.13553 6.07044 8.13553ZM8.75816 6.51459H8.45344H8.75816ZM8.76884 7.09696L8.48399 7.09243L8.76884 7.09696ZM7.34219 9.45185C7.20166 9.45185 7.17674 9.32459 7.17675 9.21845C7.30648 8.38647 7.08109 8.39657 6.93379 8.10827C6.81164 7.88106 6.55899 7.97575 6.56489 7.95845C6.56929 7.39071 6.57041 6.85095 6.57041 6.29288C6.57041 6.21012 6.9697 6.12387 7.11883 6.08842C7.58419 6.00044 8.0326 6.0282 8.59229 6.06807C8.78794 6.11285 8.89603 6.13237 8.89319 6.29893C8.90379 6.57113 8.69873 6.4796 8.51704 6.51459H8.57543C8.74475 6.51459 8.98002 6.49359 8.96728 6.83717C8.96716 7.12842 8.58746 7.09243 8.6994 7.09243C8.86872 7.09243 8.96181 7.16381 8.96181 7.28507V7.43383C8.96181 7.5551 8.76932 7.62109 8.69495 7.62257L8.43671 7.62774C8.50212 7.62931 8.47262 7.62877 8.53805 7.62877C8.68038 7.62877 8.9151 7.57176 8.9151 7.80352C8.9151 7.80352 8.91213 7.97529 8.86563 8.01076C8.80746 8.05512 8.72932 8.05791 8.6407 8.06916C8.4861 8.08878 8.32564 8.08283 8.16436 8.07093C8.16436 8.07093 8.09945 8.06613 8.06912 8.06509C7.86673 8.05811 7.8972 7.98923 7.77047 8.21217C7.59574 8.70463 7.7525 9.38418 7.38963 9.4476C7.37251 9.45049 7.35673 9.45185 7.34219 9.45185V9.45185Z" fill="#D9D9D9"/>
<path d="M8.75816 6.51459H8.45344M8.76884 7.09696L8.48399 7.09243M6.07044 8.13553H6.26477C6.4341 8.13553 6.57041 8.0379 6.57041 7.91664V6.24853C6.57041 6.12726 6.4341 6.02963 6.26477 6.02963H6.07044C5.90111 6.02963 5.7648 6.12726 5.7648 6.24853V7.91664C5.7648 8.0379 5.90111 8.13553 6.07044 8.13553ZM7.34219 9.45185C7.20166 9.45185 7.17674 9.32459 7.17675 9.21845C7.30648 8.38647 7.08109 8.39657 6.93379 8.10827C6.81164 7.88106 6.55899 7.97575 6.56489 7.95845C6.56929 7.39071 6.57041 6.85095 6.57041 6.29288C6.57041 6.21012 6.9697 6.12387 7.11883 6.08842C7.58419 6.00044 8.0326 6.0282 8.59229 6.06807C8.78794 6.11285 8.89603 6.13237 8.89319 6.29893C8.90379 6.57113 8.69873 6.4796 8.51704 6.51459H8.57543C8.74475 6.51459 8.98002 6.49359 8.96728 6.83717C8.96716 7.12842 8.58746 7.09243 8.6994 7.09243C8.86872 7.09243 8.96181 7.16381 8.96181 7.28507V7.43383C8.96181 7.5551 8.76932 7.62109 8.69495 7.62257L8.43671 7.62774C8.50212 7.62931 8.47262 7.62877 8.53805 7.62877C8.68038 7.62877 8.9151 7.57176 8.9151 7.80352C8.9151 7.80352 8.91213 7.97529 8.86563 8.01076C8.80746 8.05513 8.72932 8.05792 8.6407 8.06916C8.4861 8.08878 8.32564 8.08283 8.16436 8.07093C8.16436 8.07093 8.09945 8.06613 8.06912 8.06509C7.86673 8.05811 7.8972 7.98923 7.77047 8.21217C7.59574 8.70463 7.7525 9.38418 7.38963 9.4476C7.37251 9.45049 7.35673 9.45185 7.34219 9.45185V9.45185Z" stroke="#584F4D" stroke-width="0.5" stroke-linecap="round" stroke-linejoin="round"/>
<circle cx="5.5" cy="5.5" r="5.25" stroke="#4A4342" stroke-width="0.5"/>
</svg>
