<svg width="9" height="9" viewBox="0 0 9 9" fill="none" xmlns="http://www.w3.org/2000/svg">
<path d="M5.71854 2.71613L3.19742 4.01838" stroke="#584F4D" stroke-width="0.5" stroke-linecap="round" stroke-linejoin="round"/>
<path d="M5.71854 6.78195L3.19742 5.47971" stroke="#584F4D" stroke-width="0.5" stroke-linecap="round" stroke-linejoin="round"/>
<path d="M7.03878 3.30688C6.39235 3.30688 5.86832 2.79046 5.86832 2.15344C5.86832 1.51641 6.39235 1 7.03878 1C7.6852 1 8.20923 1.51641 8.20923 2.15344C8.20923 2.79046 7.6852 3.30688 7.03878 3.30688Z" stroke="#584F4D" stroke-width="0.5" stroke-linecap="round" stroke-linejoin="round"/>
<path d="M7.03878 8.49808C6.39235 8.49808 5.86832 7.98167 5.86832 7.34464C5.86832 6.70762 6.39235 6.1912 7.03878 6.1912C7.6852 6.1912 8.20923 6.70762 8.20923 7.34464C8.20923 7.98167 7.6852 8.49808 7.03878 8.49808Z" stroke="#584F4D" stroke-width="0.5" stroke-linecap="round" stroke-linejoin="round"/>
<path d="M2.17046 5.90248C1.52403 5.90248 1 5.38607 1 4.74904C1 4.11202 1.52403 3.5956 2.17046 3.5956C2.81688 3.5956 3.34091 4.11202 3.34091 4.74904C3.34091 5.38607 2.81688 5.90248 2.17046 5.90248Z" stroke="#584F4D" stroke-width="0.5" stroke-linecap="round" stroke-linejoin="round"/>
</svg>
